<svg width="1962" height="482" viewBox="0 0 1962 482" fill="none" xmlns="http://www.w3.org/2000/svg">
<path d="M157.616 464.696C231.344 440.12 272.816 405.304 291.76 351.032C298.928 330.552 303.024 305.976 303.024 264.504C303.024 241.464 302 207.16 301.488 184.12C313.264 181.56 326.064 178.488 339.888 175.416C367.536 168.76 375.216 164.152 375.216 150.328C375.216 136.504 354.736 121.144 330.672 121.656C326.064 124.728 320.432 127.288 315.312 128.824C310.704 130.36 306.096 131.896 300.976 133.432C300.976 123.704 300.976 112.952 300.976 101.688C301.488 94.008 301.488 88.888 304.048 82.744C306.096 78.136 307.12 76.088 307.12 71.48C307.12 63.8 302 57.144 278.96 43.832C265.648 36.152 256.944 34.104 250.288 34.104C243.632 34.104 231.344 38.2 217.008 50.488C214.448 53.048 212.912 55.096 212.912 56.632C212.912 58.68 215.472 60.216 220.592 60.728C245.168 63.288 246.704 67.384 248.752 88.376C249.776 107.832 250.288 127.8 251.312 147.256C231.344 152.376 211.376 156.472 192.944 159.032C182.704 160.568 172.976 161.592 164.784 161.592C155.056 161.592 143.792 159.544 132.528 155.448C130.992 154.936 130.48 154.936 129.456 154.936C127.92 154.936 126.896 155.96 126.896 156.984C126.896 158.008 126.896 158.52 128.432 160.568C150.96 190.264 166.832 203.064 192.944 203.064C206.768 203.064 226.224 200.504 251.824 195.384C251.824 250.68 249.776 295.736 247.216 316.728C240.56 372.024 212.912 425.272 153.52 460.088C151.984 461.112 151.472 461.624 151.472 462.648C151.472 463.672 152.496 465.208 155.568 465.208L157.616 464.696ZM101.296 228.152C101.296 226.616 100.272 225.592 99.248 225.592C98.224 225.592 97.2 226.104 96.176 228.664C82.352 262.456 73.648 282.936 62.896 306.488C57.776 317.24 55.216 319.8 52.656 319.8C49.584 319.8 47.536 318.776 45.488 313.144C42.416 304.952 40.368 287.544 40.368 271.672C40.368 248.632 48.56 212.792 62.896 179C71.6 157.496 79.28 137.528 79.28 126.776C79.28 108.856 76.208 101.176 63.92 85.304C52.656 70.968 38.832 59.192 24.496 51.512C22.448 50.488 21.936 50.488 20.912 50.488C19.376 50.488 18.352 51.512 18.352 52.536C18.352 53.56 18.352 54.072 19.376 56.12C24.496 66.36 26.032 77.112 26.032 87.864C26.032 99.64 20.912 129.336 13.744 162.616C5.552 204.088 0.944 247.096 0.944 272.696C0.944 308.536 7.60001 341.816 19.376 366.904C31.664 394.04 48.048 409.912 64.432 409.912C78.256 409.912 90.544 403.256 90.544 384.824C90.544 378.168 89.008 367.416 87.984 359.736C87.472 357.176 87.472 354.616 87.472 351.544C87.472 344.376 88.496 334.648 90.032 318.776C92.592 293.176 96.176 266.552 101.296 229.176V228.152ZM641.456 213.304C678.32 187.704 703.92 170.808 726.448 159.544C759.728 144.184 782.768 140.6 799.152 140.6C834.48 140.6 852.912 155.96 852.912 185.144C852.912 214.328 816.56 246.584 753.584 246.584C735.664 246.584 717.744 245.56 707.504 244.024C701.36 243 700.848 243 699.824 243C698.8 243 698.288 243.512 698.288 244.536C698.288 245.56 699.312 246.584 701.872 248.12C731.056 267.064 769.968 280.376 805.808 280.376C857.008 280.376 904.112 250.68 904.112 206.648C904.112 152.888 853.936 122.68 801.2 122.68C784.816 122.68 766.896 123.192 746.416 127.8C755.12 124.216 762.288 117.56 762.288 105.272C762.288 94.52 758.704 84.792 734.64 68.92C703.408 47.928 692.144 38.2 684.976 23.352C683.952 21.304 683.44 21.304 681.904 21.304C680.88 21.304 679.856 21.816 679.344 23.352C676.272 34.104 674.736 46.904 674.736 55.608C674.736 64.312 677.808 71.992 680.368 77.112C680.88 78.136 681.392 79.16 681.392 80.184C681.392 82.744 679.856 84.792 676.272 85.304C672.688 85.816 665.008 86.328 656.816 86.328C650.16 86.328 639.408 86.328 614.832 84.792C608.688 80.696 601.52 80.184 593.328 80.184C570.288 80.184 549.296 98.616 549.296 122.68C549.296 139.576 558.512 160.056 579.504 196.408C570.8 200.504 561.584 204.6 551.856 209.208C528.304 220.472 509.872 226.616 501.68 226.616C492.976 226.616 484.272 224.056 476.08 216.888C475.056 215.864 474.032 215.352 473.008 215.352C471.984 215.352 470.448 216.376 470.448 221.496C470.448 233.272 472.496 242.488 482.736 253.24C500.144 271.672 514.48 280.888 527.28 280.888C535.984 280.888 542.64 276.792 548.784 271.16C558 264.504 571.312 255.8 586.16 246.072C591.28 242.488 596.912 238.904 602.032 235.32C628.656 285.496 647.088 334.648 658.864 378.68C665.52 403.768 669.104 418.616 671.664 431.416C675.76 450.36 689.072 458.04 700.336 458.04C715.184 458.04 734.64 444.728 734.64 424.248C734.64 408.376 729.52 390.968 719.28 364.344C698.8 311.608 673.712 265.016 641.456 213.304ZM618.928 178.488C596.4 142.136 590.256 127.8 590.256 114.488C590.256 100.664 598.96 95.544 613.296 95.544C617.392 95.544 623.024 96.056 629.168 96.568C642.992 98.104 662.448 101.688 683.952 108.856C695.216 112.44 704.432 116.536 715.184 123.192C722.352 127.8 727.984 129.848 733.616 129.848C734.64 129.848 736.176 129.848 737.712 129.848C727.984 131.896 719.28 134.968 709.552 138.552C689.072 146.744 660.4 159.544 618.928 178.488ZM1253.81 62.776C1244.59 71.48 1235.38 77.624 1224.62 82.744C1218.48 85.304 1211.82 87.864 1204.14 90.936C1200.56 80.184 1196.98 69.432 1196.46 60.216C1196.98 54.072 1197.49 50.488 1197.49 45.368C1197.49 33.592 1166.77 20.28 1153.97 20.28C1144.75 20.28 1132.98 25.4 1115.06 45.368C1112.5 48.44 1111.98 49.464 1111.98 51.512C1111.98 53.56 1114.54 55.608 1119.15 55.608C1132.46 56.12 1137.58 58.168 1141.68 60.728C1146.29 63.8 1149.36 67.896 1153.97 78.648C1158.06 88.376 1161.65 96.568 1165.23 104.76C1145.78 111.416 1125.3 118.072 1106.35 123.704C1090.99 127.8 1071.02 131.384 1055.66 131.384C1041.84 131.384 1032.62 129.336 1021.87 124.728C1019.31 123.704 1018.29 123.192 1017.26 123.192C1016.24 123.192 1015.22 124.216 1015.22 125.24C1015.22 126.264 1015.73 127.288 1017.26 129.336C1042.35 161.08 1061.81 168.76 1081.78 168.76C1093.04 168.76 1095.09 168.76 1103.79 167.224C1091.5 183.096 1085.36 195.384 1084.85 211.256C1083.82 248.632 1116.59 256.824 1144.24 256.824C1170.35 256.824 1208.75 249.656 1231.28 240.44C1238.96 254.264 1247.15 268.088 1255.86 282.424C1257.39 284.984 1258.93 288.056 1258.93 290.104C1258.93 293.176 1257.39 295.224 1244.08 295.224C1214.9 295.224 1176.5 298.808 1164.21 301.368C1123.76 308.536 1075.12 326.456 1075.12 374.584C1075.12 408.376 1123.25 462.136 1245.1 462.136C1269.17 462.136 1279.92 453.432 1279.92 439.096C1279.92 415.544 1243.57 395.064 1225.65 395.064C1217.97 397.624 1204.66 398.648 1199.54 398.648C1121.71 398.648 1100.21 376.12 1100.21 356.664C1100.21 335.672 1121.71 321.336 1184.18 321.336C1233.33 321.336 1265.07 327.992 1286.06 341.304C1295.79 347.448 1303.47 351.544 1309.62 351.544C1320.88 351.544 1332.66 343.352 1332.66 326.968C1332.66 307 1327.02 299.832 1305.52 272.696C1292.21 256.312 1280.43 240.44 1269.68 224.568C1291.7 214.328 1307.06 204.6 1321.39 193.336C1335.73 181.56 1340.85 174.904 1340.85 164.664C1340.85 153.4 1329.58 142.648 1310.13 143.16C1297.33 143.16 1287.09 142.136 1265.07 137.016C1263.02 136.504 1263.02 136.504 1262 136.504C1260.98 136.504 1260.46 137.016 1260.46 138.04C1260.46 139.064 1260.98 139.576 1262 140.6C1265.07 143.16 1271.22 148.792 1275.82 153.912C1277.36 155.448 1278.9 158.52 1278.9 161.08C1278.9 164.152 1276.34 167.736 1273.78 169.272C1266.1 174.392 1257.39 179 1245.1 184.632C1235.38 167.224 1226.67 149.816 1218.99 131.896C1236.91 125.752 1254.32 119.608 1267.63 114.488C1299.89 101.688 1307.06 94.52 1307.06 85.304C1307.06 70.968 1299.89 62.776 1264.05 62.776H1253.81ZM1182.64 144.696C1191.34 162.616 1199.54 181.048 1208.75 198.456C1170.86 212.792 1144.24 218.424 1122.22 218.424C1107.89 218.424 1098.16 214.328 1098.16 204.6C1098.16 186.168 1125.81 164.664 1158.06 152.888C1165.23 150.328 1173.94 147.256 1182.64 144.696ZM1607.09 61.24C1610.67 54.072 1613.74 46.904 1616.3 39.736C1627.57 33.08 1630.13 29.496 1630.13 25.4C1630.13 19.256 1621.94 15.16 1556.4 0.311981C1555.89 7.47998 1554.86 16.696 1552.82 28.984C1540.53 100.152 1510.32 171.32 1467.82 222.008C1465.78 224.568 1468.85 227.128 1471.41 225.592C1495.98 209.72 1520.56 187.704 1542.06 162.104C1548.21 170.296 1547.7 178.488 1545.65 189.752C1544.62 195.896 1544.11 198.456 1544.11 203.576C1544.11 212.28 1553.33 222.008 1565.62 222.008C1569.2 222.008 1572.78 220.984 1576.37 219.96C1548.21 254.264 1514.42 281.912 1472.43 309.048C1469.87 310.584 1471.92 314.68 1474.99 313.656C1584.05 278.328 1662.38 203.576 1707.95 92.984C1722.29 83.256 1727.92 79.672 1727.92 75.576C1727.92 70.968 1721.26 64.312 1711.02 55.096C1681.84 30.008 1679.28 28.984 1675.18 28.984C1671.09 28.984 1668.53 31.544 1646.51 61.24H1607.09ZM1548.21 154.936C1561.52 138.552 1574.32 120.632 1585.07 102.2C1588.66 106.808 1589.17 112.44 1588.14 119.608C1586.61 130.36 1586.1 134.968 1586.1 139.064C1586.1 147.768 1594.8 158.008 1607.09 158.008C1610.67 158.008 1614.26 156.984 1617.33 155.448C1609.65 171.32 1600.94 185.656 1591.73 198.456C1592.24 196.92 1592.24 195.384 1592.24 193.848C1592.24 174.392 1580.46 160.056 1548.21 154.936ZM1650.61 71.48C1644.46 90.936 1637.81 108.856 1631.15 125.24C1628.59 109.88 1616.3 98.104 1590.19 94.008C1594.29 86.328 1598.38 79.16 1601.97 71.48H1650.61ZM1694.64 220.984C1678.77 220.984 1660.34 219.96 1633.71 217.4L1638.83 234.808C1662.9 232.248 1680.3 231.224 1694.64 231.224H1794.99C1798.58 231.224 1800.62 228.664 1800.62 225.592C1800.62 222.008 1799.09 219.448 1780.66 202.04C1759.66 182.072 1757.62 181.048 1753.52 181.048C1749.94 181.048 1746.35 183.608 1718.19 220.984H1694.64ZM1647.02 368.44C1661.36 365.88 1668.53 360.76 1668.53 354.104C1668.53 346.936 1659.31 340.792 1599.41 313.144C1595.31 328.504 1589.68 339.256 1586.61 344.888C1557.42 398.136 1518 440.632 1472.94 465.208C1470.38 466.744 1472.43 471.352 1475.5 470.328C1538.48 453.432 1601.46 418.104 1647.02 368.44ZM1874.86 300.344C1878.45 300.344 1880.5 297.784 1880.5 294.712C1880.5 291.64 1878.45 289.08 1859.5 271.672C1833.39 247.608 1831.34 247.096 1828.27 247.096C1824.69 247.096 1822.13 249.144 1793.97 290.104H1617.33C1601.46 290.104 1585.07 289.592 1558.45 286.52L1563.57 303.928C1587.12 301.368 1601.97 300.344 1616.3 300.344H1685.94C1686.96 313.656 1686.96 324.408 1686.96 342.84V394.04C1686.96 412.472 1681.33 417.592 1664.43 419.128C1651.63 420.152 1632.18 420.152 1613.74 419.64C1610.67 419.64 1610.67 423.736 1613.74 424.76C1644.46 437.048 1658.8 450.36 1664.43 466.744C1669.04 480.568 1673.14 481.08 1683.38 481.08C1694.13 481.08 1710 479.544 1726.38 470.84C1746.86 459.064 1755.57 449.848 1755.57 415.544C1755.57 388.92 1752.5 348.472 1752.5 324.92V312.12C1760.69 307.512 1762.22 303.928 1762.22 300.344H1874.86ZM1774.51 329.016C1771.44 329.016 1769.39 332.6 1771.95 334.136C1807.28 356.664 1833.9 388.92 1846.19 426.296C1852.85 446.264 1863.6 455.48 1881.52 455.48C1896.88 455.48 1915.82 443.192 1915.82 415.032C1915.82 367.928 1861.55 332.6 1774.51 329.016ZM1819.57 48.952C1804.72 48.952 1786.29 47.928 1762.22 44.856L1767.34 62.776C1790.9 59.704 1807.79 59.192 1819.57 59.192H1841.58C1831.86 83.256 1819.57 111.928 1805.23 139.576C1769.39 109.368 1749.94 78.136 1737.14 33.592C1735.6 28.472 1735.6 25.4 1737.14 21.816C1738.67 18.232 1739.7 16.696 1739.7 14.648C1739.7 12.6 1738.16 11.576 1736.62 11.576C1726.9 11.576 1715.12 13.624 1715.12 16.696C1715.12 20.28 1717.68 21.816 1720.75 24.376C1723.31 26.424 1724.85 30.52 1725.36 35.128C1737.14 110.392 1753.01 150.84 1790.38 196.408C1815.98 227.64 1851.31 253.752 1892.78 274.744C1895.86 276.28 1899.95 277.304 1904.05 277.304C1908.66 277.304 1911.73 274.744 1915.82 267.064C1932.21 236.856 1945.01 226.616 1957.81 219.96C1960.37 218.424 1961.9 214.84 1958.83 214.328C1909.17 201.528 1853.36 176.44 1817.01 148.792C1847.22 126.264 1881.01 100.152 1902 83.768C1924.53 79.672 1930.16 75.576 1930.16 69.432C1930.16 64.312 1926.06 58.68 1907.63 44.344C1879.47 22.328 1872.3 19.256 1867.7 19.256C1863.6 19.256 1858.99 23.352 1836.98 48.952H1819.57Z" fill="black"/>
</svg>
